<svg width="2386" height="583" viewBox="0 0 2386 583" fill="none" xmlns="http://www.w3.org/2000/svg">
<g clip-path="url(#clip0_50_22)">
<path d="M1498 230.5C1498 230.5 1536.55 212.223 1569 207C1595.99 202.656 1613.13 215.846 1639 207C1677.99 193.666 1671.38 144.147 1709.5 128.5C1750.52 111.663 1782.17 157.915 1822.5 139.5C1851.89 126.079 1847.97 84.2869 1880 80C1903.63 76.8373 1913.74 98.6132 1937.5 100.5C1990.68 104.722 1995 29.9998 2054.5 30C2114 30.0002 2130.05 84.9907 2178.5 100.5C2217.74 113.06 2218.8 113.5 2260 113.5C2291.24 113.5 2291.3 72.0073 2321.5 80C2355.92 89.1078 2382.45 155.275 2417.5 161.5C2454.81 168.126 2474.26 136.129 2512 139.5C2548.95 142.801 2599.5 176.5 2599.5 176.5C2599.5 176.5 2738.5 234.5 2728.5 236C2718.5 237.5 2690.13 261.075 2662.5 261.5C2636.63 261.897 2632.88 237.733 2599.5 241C2561.54 244.715 2524.95 281.281 2492 300.5C2425.32 339.394 2393.1 348.645 2321.5 377.5C2281.64 393.565 2259.3 403.513 2217.5 413.5C2161.19 426.954 2066.27 431.443 2064 432.5C2056.5 436 2021 458 2021 458C2021 458 1986 423.5 1949.5 437.5C1913 451.5 1897.36 428.571 1849 419.5C1763.83 403.524 1633.5 266.5 1633.5 266.5C1633.5 266.5 1604.5 260.5 1599 271.5C1593.5 282.5 1541.5 271.5 1541.5 271.5L1523.5 250.5L1498 230.5Z" fill="#E6ECDE"/>
<path d="M729 234.5C729 234.5 767.553 216.223 800 211C826.989 206.656 844.134 219.846 870 211C908.988 197.666 902.382 148.147 940.5 132.5C981.517 115.663 1013.17 161.915 1053.5 143.5C1082.89 130.079 1078.97 88.2869 1111 84C1134.63 80.8373 1144.74 102.613 1168.5 104.5C1221.68 108.722 1226 33.9998 1285.5 34C1345 34.0002 1361.05 88.9907 1409.5 104.5C1448.74 117.06 1449.8 117.5 1491 117.5C1522.24 117.5 1522.3 76.0073 1552.5 84C1586.92 93.1078 1613.45 159.275 1648.5 165.5C1685.81 172.126 1705.26 140.129 1743 143.5C1779.95 146.801 1830.5 180.5 1830.5 180.5C1830.5 180.5 1969.5 238.5 1959.5 240C1949.5 241.5 1921.13 265.075 1893.5 265.5C1867.63 265.897 1863.88 241.733 1830.5 245C1792.54 248.715 1755.95 285.281 1723 304.5C1656.32 343.394 1624.1 352.645 1552.5 381.5C1512.64 397.565 1490.3 407.513 1448.5 417.5C1392.19 430.954 1297.27 435.443 1295 436.5C1287.5 440 1252 462 1252 462C1252 462 1217 427.5 1180.5 441.5C1144 455.5 1128.36 432.571 1080 423.5C994.828 407.524 864.5 270.5 864.5 270.5C864.5 270.5 835.5 264.5 830 275.5C824.5 286.5 772.5 275.5 772.5 275.5L754.5 254.5L729 234.5Z" fill="#EDFADE"/>
<path d="M1397.5 222.419C1411.56 208.551 1417.67 198.523 1434 187.419C1452.95 174.53 1465.42 168.338 1488 164.419C1516.09 159.545 1532.5 178.274 1560.5 172.919C1589.43 167.386 1600.93 151.03 1626.5 136.419C1657.06 118.96 1669.22 95.8132 1704 90.4187C1741.54 84.5966 1764.54 97.4336 1798 115.419C1828.5 131.814 1835.52 155.592 1865.5 172.919C1887.1 185.402 1899.59 196.091 1924.5 197.419C1957.35 199.169 1967.16 189.164 1999 197.419C2023.74 203.833 2048.91 230.314 2074 225.419C2094.5 221.419 2168.5 276.419 2168.5 276.419H1798H1615H1345C1345 276.419 1376.56 243.072 1397.5 222.419Z" fill="#79AF86"/>
<path d="M-273 262.684C-273 262.684 -234.447 244.407 -202 239.185C-175.011 234.84 -157.866 248.031 -132 239.185C-93.0125 225.851 -99.618 176.331 -61.5 160.685C-20.4833 143.848 11.1673 190.1 51.5 171.685C80.8944 158.264 76.9722 116.471 109 112.185C132.629 109.022 142.735 130.798 166.5 132.685C219.678 136.907 224 62.1844 283.5 62.1846C343 62.1848 359.045 117.175 407.5 132.685C446.739 145.244 447.8 145.685 489 145.685C520.242 145.685 520.298 104.192 550.5 112.185C584.916 121.292 611.448 187.459 646.5 193.685C683.808 200.311 703.259 168.313 741 171.685C777.953 174.986 828.5 208.685 828.5 208.685C828.5 208.685 967.5 266.685 957.5 268.185C947.5 269.684 919.128 293.26 891.5 293.685C865.63 294.082 861.876 269.918 828.5 273.184C790.535 276.9 753.951 313.465 721 332.684C654.316 371.578 622.102 380.829 550.5 409.685C510.636 425.749 488.302 435.697 446.5 445.685C390.186 459.139 295.265 463.627 293 464.684C285.5 468.184 250 490.185 250 490.185C250 490.185 215 455.685 178.5 469.684C142 483.684 126.363 460.756 78 451.684C-7.17173 435.709 -137.5 298.684 -137.5 298.684C-137.5 298.684 -166.5 292.684 -172 303.684C-177.5 314.684 -229.5 303.684 -229.5 303.684L-247.5 282.684L-273 262.684Z" fill="#DAE6CB"/>
<path d="M400.5 231C400.5 231 439.053 212.723 471.5 207.5C498.489 203.156 515.634 216.346 541.5 207.5C580.488 194.167 573.882 144.647 612 129C653.017 112.163 684.667 158.415 725 140C754.394 126.579 750.472 84.7871 782.5 80.5002C806.129 77.3375 816.235 99.1135 840 101C893.178 105.222 941.5 26.0002 957 30.5002C972.5 35.0002 1008.55 98.4909 1057 114C1096.24 126.56 1121.3 114 1162.5 114C1193.74 114 1212.3 106.007 1242.5 114C1276.92 123.108 1284.95 155.775 1320 162C1357.31 168.626 1376.76 136.629 1414.5 140C1451.45 143.301 1502 177 1502 177C1502 177 1641 235 1631 236.5C1621 238 1592.63 261.576 1565 262C1539.13 262.398 1535.38 238.234 1502 241.5C1464.04 245.216 1427.45 281.781 1394.5 301C1327.82 339.894 1295.6 349.145 1224 378C1184.14 394.065 1161.8 404.013 1120 414C1063.69 427.455 968.765 431.943 966.5 433C959 436.5 931 462 931 462C931 462 855 428.5 818.5 442.5C782 456.5 713 384.5 703 367.5C693 350.5 663.64 367.844 640 360.5C587.844 344.297 569 272 536 267C503 262 523.5 263 501.5 272C479.5 281 444 272 444 272L426 251L400.5 231Z" fill="#90BE97"/>
<path d="M184 397.5C184 397.5 222.553 379.223 255 374C281.989 369.656 299.134 382.846 325 374C363.988 360.666 357.382 311.147 395.5 295.5C436.517 278.663 468.167 324.915 508.5 306.5C537.894 293.079 533.972 251.287 566 247C589.629 243.837 599.735 265.613 623.5 267.5C676.678 271.722 681 197 740.5 197C800 197 816.045 251.991 864.5 267.5C903.739 280.06 904.8 280.5 946 280.5C977.242 280.5 977.298 239.007 1007.5 247C1041.92 256.108 1068.45 322.275 1103.5 328.5C1140.81 335.126 1160.26 303.129 1198 306.5C1234.95 309.801 1285.5 343.5 1285.5 343.5C1285.5 343.5 1424.5 401.5 1414.5 403C1404.5 404.5 1376.13 428.075 1348.5 428.5C1322.63 428.897 1318.88 404.733 1285.5 408C1247.54 411.715 1210.95 448.281 1178 467.5C1111.32 506.394 1079.1 515.645 1007.5 544.5C967.636 560.565 945.302 570.513 903.5 580.5C847.186 593.954 752.265 598.443 750 599.5C742.5 603 707 625 707 625C707 625 672 590.5 635.5 604.5C599 618.5 583.363 595.571 535 586.5C449.828 570.524 319.5 433.5 319.5 433.5C319.5 433.5 290.5 427.5 285 438.5C279.5 449.5 227.5 438.5 227.5 438.5L209.5 417.5L184 397.5Z" fill="#589561"/>
<path d="M890 478.86C890 478.86 934.5 453.218 966.128 432.81C997.757 412.402 1073.93 420.775 1073.93 420.775C1073.93 420.775 1194.09 388.542 1244.07 361.12C1305.65 327.339 1353.41 322.397 1413.7 280.534C1457.8 249.91 1503.11 226.635 1544.5 240.764C1585.89 254.893 1619.18 231.818 1667.12 233.438C1697.76 234.473 1714.96 245.309 1745.3 240.764C1793.78 233.498 1805.07 182.746 1853.61 175.876C1871.01 173.415 1881.13 173.833 1898.57 175.876C1922.86 178.721 1934.6 190.109 1958.86 193.145C2025.51 201.482 2122.87 140.293 2122.87 140.293L2176.52 120.408C2176.52 120.408 2206.36 117.24 2225.06 120.408C2260.01 126.327 2305.78 162.794 2305.78 162.794L2366.58 193.145H2386V266.405C2386 266.405 2354.34 280.488 2333.37 278.44C2309.21 276.081 2288.96 281.58 2267.5 266.405C2246.04 251.23 2234.5 278.44 2234.5 278.44C2234.5 278.44 2183.68 336.871 2122.87 361.12C2077.16 379.349 2041.91 388.157 1993 392C1911.23 398.425 1837.83 370.702 1758.5 392C1716.1 403.385 1725.08 403.802 1684.49 420.775C1579.25 464.789 1527.24 535.801 1413.7 530.142C1389.97 528.959 1376.85 525.786 1353.41 521.769C1262.31 506.152 1217.25 435.267 1126.56 453.218C1067.04 465.001 1026.63 546.796 966.128 542.863C922.669 540.038 890 478.86 890 478.86Z" fill="#337451"/>
<path d="M-61.5261 312.824C-61.5261 312.824 -62.7509 315.371 -51.0331 312.831C-60.3957 317.228 -41.2863 310.719 -51.0331 312.831C-36.921 306.204 -109.181 254.402 -95.3717 246.6C-109.992 255.797 -80.5122 238.205 -95.3717 246.6C-84.7165 239.897 -85.9387 218.714 -74.3762 216.647C-65.8459 215.122 -62.3033 226.186 -53.7471 227.219C-34.6011 229.531 -16.8231 189.557 -11.2575 191.887C-5.69186 194.217 7.00811 226.497 24.4003 234.511C38.4846 241.001 47.5738 234.72 62.4224 234.855C73.682 234.956 80.4061 230.968 91.2544 235.115C103.616 239.841 106.361 256.415 118.966 259.683C132.381 263.161 139.538 247.015 153.124 248.846C166.427 250.639 171.48 250.748 184.49 267.874C197.5 285 226.111 267.147 222.5 267.874C218.889 268.601 216.766 311.137 206.806 311.137C201.5 311.137 196.238 299.001 184.195 300.547C170.495 302.306 157.143 320.71 145.179 330.338C120.968 349.823 109.316 354.404 83.3785 368.788C68.9381 376.797 60.8434 381.763 45.732 386.686C25.3747 393.318 -8.85499 395.283 -9.6763 395.811C-12.3953 397.559 -25.2902 408.588 -25.2902 408.588C-25.2902 408.588 -37.7464 390.998 -50.9651 397.971C-64.1838 404.944 -40.2836 373.438 -57.6719 368.685C-57.6638 378.709 -88.2947 360.315 -57.6719 368.685C-57.6801 358.661 -51.0331 312.831 -51.0331 312.831L-61.5261 312.824Z" fill="#84B58D"/>
<path d="M160 306.717C178.075 294.556 185.227 283.242 205 273.866C239.767 257.38 265.783 271.248 303.5 262.754C341.876 254.113 359.68 223.372 398.5 229.903C430.138 235.226 434.951 271.892 467 273.866C486.047 275.039 495.416 262.497 514.5 262.754C550.948 263.245 566.882 285.529 596 306.717C618.623 323.179 621.647 347.453 649 354.545C664.087 358.456 673.833 350.932 689 354.545C716.989 361.21 721.295 385.313 745.5 400.44C768.158 414.599 781.452 423.103 807.5 429.909C842.937 439.168 867.747 415.963 901.5 429.909C916.041 435.917 1010 498.993 1010 498.993C1010 498.993 991.674 523.581 974 526.593C963.552 528.374 947 523.695 947 523.695C947 523.695 933.177 522.993 925.5 519.284C908.452 511.047 914.222 492.56 898.5 482.148C889.432 476.142 882.085 470.602 875 469.041C863.2 466.44 845.5 478.22 845.5 478.22C845.5 478.22 831.916 493.911 820 498.993C810.365 503.102 804.031 503.717 793.5 503.824C764.142 504.122 750.845 486.243 727.5 469.041C711.026 456.901 689 433.774 689 433.774C689 433.774 652.896 410.553 627 404.305C604.645 398.912 593.111 394.18 571 400.44C545.84 407.563 537.926 423.749 516 437.639C489.48 454.44 477.707 472.769 446.5 478.22C430.936 480.938 421.642 480.483 406 478.22C392.552 476.274 386.096 468.777 372.5 469.041C354.838 469.383 346.467 478.185 331 486.432C311.166 497.008 301.635 505.544 284 519.284C257.656 539.808 229 572.908 221 576.773C213 580.638 0 586.919 0 579.672C0 572.425 1.5 387.396 1.5 387.396C1.5 387.396 102.587 345.347 160 306.717Z" fill="#0C5B4A"/>
<path d="M919 583.39C919 583.39 1088.5 427.389 1163.5 437.39C1238.5 447.391 1316 510.89 1393 524.89C1470 538.891 1634.91 394.609 1805 374.89C1889.57 365.086 1939.92 393.494 2023 374.89C2125.04 352.039 2156.38 228.272 2259 248.391C2290.03 254.474 2302.42 280.464 2334 278.891C2355.53 277.818 2386 105.891 2386 260.391C2386 414.891 2386 583.39 2386 583.39H919Z" fill="url(#paint0_linear_50_22)"/>
<path d="M1467 604.39C1467 604.39 1297.5 448.389 1222.5 458.39C1147.5 468.391 1070 531.89 993 545.89C916 559.891 751.089 415.609 581 395.89C496.432 386.086 446.077 414.494 363 395.89C260.959 373.039 229.615 249.272 127 269.391C95.9721 275.474 83.5794 301.464 52 299.891C30.4725 298.818 0 126.891 0 281.391C0 435.891 0 604.39 0 604.39H1467Z" fill="url(#paint1_linear_50_22)"/>
<path d="M275.5 523.419C289.56 509.551 295.669 499.523 312 488.419C330.955 475.53 343.416 469.338 366 465.419C394.087 460.545 410.501 479.274 438.5 473.919C467.429 468.386 478.926 452.03 504.5 437.419C535.06 419.96 547.22 396.813 582 391.419C619.537 385.597 642.542 398.434 676 416.419C706.501 432.814 713.519 456.592 743.5 473.919C765.101 486.402 777.587 497.091 802.5 498.419C835.349 500.169 848.157 457.164 880 465.419C904.744 471.833 926.912 531.314 952 526.419C972.5 522.419 1046.5 577.419 1046.5 577.419H676H493H223C223 577.419 254.56 544.072 275.5 523.419Z" fill="#001E17"/>
</g>
<defs>
<linearGradient id="paint0_linear_50_22" x1="1652.5" y1="196" x2="1652.5" y2="583.39" gradientUnits="userSpaceOnUse">
<stop stop-color="#031E18"/>
<stop offset="0.230777" stop-color="#042C23"/>
<stop offset="0.605782" stop-color="#053329"/>
<stop offset="0.9999" stop-color="#084D3D"/>
<stop offset="1" stop-color="#0D846A"/>
</linearGradient>
<linearGradient id="paint1_linear_50_22" x1="733.5" y1="217" x2="733.5" y2="604.39" gradientUnits="userSpaceOnUse">
<stop stop-color="#031E18"/>
<stop offset="0.230777" stop-color="#042C23"/>
<stop offset="0.605782" stop-color="#053329"/>
<stop offset="0.9999" stop-color="#084D3D"/>
<stop offset="1" stop-color="#0D846A"/>
</linearGradient>
<clipPath id="clip0_50_22">
<rect width="2386" height="583" fill="white"/>
</clipPath>
</defs>
</svg>
