<svg width="1051" height="88" viewBox="0 0 1051 88" fill="none" xmlns="http://www.w3.org/2000/svg">
<path d="M6 43.0001C46.8 112.6 94.6667 72.0001 113.5 43.0001C127 16.0001 165.6 -21.7998 212 43.0001C258.4 107.8 299 70.0001 313.5 43.0001C328 19.3335 368.4 -13.7998 414 43.0001C459.6 99.8 496 66.6667 508.5 43.0001C521.5 18.3335 557 -16.1998 595 43.0001C633 102.2 675.167 67.6667 691.5 43.0001C705.833 23.6668 744 -3.39984 782 43.0001C820 89.4 851.167 62.3334 862 43.0001C875.333 20.0001 912.3 -12.1998 953.5 43.0001C994.7 98.2 1031.33 66.0001 1044.5 43.0001" stroke="white" stroke-width="13"/>
</svg>
